HIERARCHY
ROOT root
{
	OFFSET	0	13.1	24.9
	CHANNELS 6  Xposition Yposition Zposition Xrotation Yrotation Zrotation
	JOINT spine_1
	{
		OFFSET	0	9.99999	0
		CHANNELS 3  Xrotation Yrotation Zrotation
		JOINT spine_2
		{
			OFFSET	0	112	-10
			CHANNELS 3  Xrotation Yrotation Zrotation
			JOINT spine_3
			{
				OFFSET	0	206.5	19.3
				CHANNELS 3  Xrotation Yrotation Zrotation
				JOINT spine_4
				{
					OFFSET	0	110.4	14.6
					CHANNELS 3  Xrotation Yrotation Zrotation
					JOINT neck_1
					{
						OFFSET	0	71.8	-50.3
						CHANNELS 3  Xrotation Yrotation Zrotation
						JOINT neck_2
						{
							OFFSET	0	86.2	-25.8
							CHANNELS 3  Xrotation Yrotation Zrotation
							JOINT head_ee
							{
								OFFSET	0	179.8	-8.7
								CHANNELS 3  Xrotation Yrotation Zrotation
								End Site
								{
									OFFSET	1	0	0
								}
							}
						}
					}
					JOINT left_clavicle
					{
						OFFSET	-43.2	22.4	-70.8
						CHANNELS 3  Xrotation Yrotation Zrotation
						JOINT left_shoulder
						{
							OFFSET	-93.9	-5.79999	48.7
							CHANNELS 3  Xrotation Yrotation Zrotation
							JOINT left_elbow
							{
								OFFSET	-291.4	-30.8	15.2
								CHANNELS 3  Xrotation Yrotation Zrotation
								JOINT left_lowarm_twist
								{
									OFFSET	-110.7	-3.89999	13.6
									CHANNELS 3  Xrotation Yrotation Zrotation
									JOINT left_hand
									{
										OFFSET	-110.7	-3.89999	13.6
										CHANNELS 3  Xrotation Yrotation Zrotation
										JOINT left_ee
										{
											OFFSET	-80.8	-5.10001	12.1
											CHANNELS 3  Xrotation Yrotation Zrotation
											End Site
											{
												OFFSET	1	0	0
											}
										}
									}
								}
							}
						}
					}
					JOINT right_clavicle
					{
						OFFSET	43.2	22.4	-70.8
						CHANNELS 3  Xrotation Yrotation Zrotation
						JOINT right_shoulder
						{
							OFFSET	93.9	-5.79999	48.7
							CHANNELS 3  Xrotation Yrotation Zrotation
							JOINT right_elbow
							{
								OFFSET	291.4	-30.8	15.2
								CHANNELS 3  Xrotation Yrotation Zrotation
								JOINT right_lowarm_twist
								{
									OFFSET	110.7	-3.89999	13.6
									CHANNELS 3  Xrotation Yrotation Zrotation
									JOINT right_hand
									{
										OFFSET	110.7	-3.89999	13.6
										CHANNELS 3  Xrotation Yrotation Zrotation
										JOINT right_ee
										{
											OFFSET	80.8	-5.10001	12.1
											CHANNELS 3  Xrotation Yrotation Zrotation
											End Site
											{
												OFFSET	1	0	0
											}
										}
									}
								}
							}
						}
					}
				}
			}
		}
	}
	JOINT left_hip
	{
		OFFSET	-82.8	-127.5	0.300001
		CHANNELS 3  Xrotation Yrotation Zrotation
		JOINT left_knee
		{
			OFFSET	-28.2	-396.7	2.2
			CHANNELS 3  Xrotation Yrotation Zrotation
			JOINT left_ankle
			{
				OFFSET	-11.7	-411.3	35.4
				CHANNELS 3  Xrotation Yrotation Zrotation
				JOINT left_toes
				{
					OFFSET	0	-60	-88.6
					CHANNELS 3  Xrotation Yrotation Zrotation
					JOINT left_foot_ee
					{
						OFFSET	-22.5	-16.5	-42.2
						CHANNELS 3  Xrotation Yrotation Zrotation
						End Site
						{
							OFFSET	1	0	0
						}
					}
				}
			}
		}
	}
	JOINT right_hip
	{
		OFFSET	82.8	-127.5	0.300001
		CHANNELS 3  Xrotation Yrotation Zrotation
		JOINT right_knee
		{
			OFFSET	28.2	-396.7	2.2
			CHANNELS 3  Xrotation Yrotation Zrotation
			JOINT right_ankle
			{
				OFFSET	11.7	-411.3	35.4
				CHANNELS 3  Xrotation Yrotation Zrotation
				JOINT right_toes
				{
					OFFSET	0	-60	-88.6
					CHANNELS 3  Xrotation Yrotation Zrotation
					JOINT right_foot_ee
					{
						OFFSET	22.5	-16.5	-42.2
						CHANNELS 3  Xrotation Yrotation Zrotation
						End Site
						{
							OFFSET	1	0	0
						}
					}
				}
			}
		}
	}
}
MOTION
Frames: 11
Frame Time: 0.02
989.895 691.844 -1369.24 -67.814 80.7732 63.9182 3.92719 0.449057 1.42428 3.92825 0.357527 1.44996 3.93672 0.147244 1.4861 3.93384 0.380074 1.44421 -16.8775 7.88911 -2.10111 -17.1613 16.3223 0.95046 -0.0 0.0 -0.0 -5.11636 22.3432 -4.61787 -33.3557 -54.9857 54.807 0.953098 -25.2733 0.213687 -70.0628 -6.55404 5.30282 -1.68688 24.5215 0.149329 -0.0 0.0 -0.0 11.5335 -15.4995 -20.8599 -37.7067 59.2821 -39.6801 0.541632 15.0194 -0.0714008 44.8102 0.622813 5.54649 1.90953 8.07719 -9.50594 0.0 0.0 0.0 37.9444 -10.1604 -0.916355 -31.655 -0.0228729 4.79658 17.2983 11.9865 -2.39817 3.29852 -0.0 -0.0 -0.0 0.0 -0.0 1.44556 -14.1935 -2.35875 -5.35198 -0.183064 -0.800672 39.4895 16.833 5.18291 -14.4002 0.0 0.0 0.0 0.0 0.0 
982.649 694.945 -1372.01 -71.2413 80.8929 67.5567 3.98756 0.386559 1.34799 3.98852 0.300008 1.36985 3.99515 0.103136 1.39851 3.99257 0.32269 1.36469 -17.4055 8.86908 -0.303412 -17.7527 17.2093 3.08921 -0.0 0.0 -0.0 -5.47509 21.96 -5.23566 -33.9413 -54.5845 54.9697 0.972999 -25.7334 0.222256 -69.3486 -6.46292 5.29594 -1.41739 22.4256 0.731149 -0.0 0.0 -0.0 11.4614 -14.9358 -20.8328 -37.0112 59.4474 -39.9592 0.572186 15.8252 -0.0795263 44.4689 0.601881 5.50815 2.07215 10.1134 -9.73286 0.0 0.0 0.0 36.8387 -10.883 -1.20163 -25.8948 0.17929 3.93605 10.2685 12.5419 -1.46306 0.690036 -0.0 -0.0 -0.0 0.0 -0.0 0.47038 -12.6396 -2.37859 -4.1541 -0.148608 -0.620069 38.1334 20.6232 5.20814 -13.8957 0.0 0.0 0.0 0.0 0.0 
974.607 695.118 -1373.97 -74.1542 81.6868 70.541 4.0027 0.330808 1.40907 4.00377 0.240485 1.42726 4.00914 0.0364221 1.44691 4.00632 0.264455 1.42301 -18.1741 8.84243 -0.787154 -18.5576 17.4326 2.75383 -0.0 0.0 -0.0 -4.96787 20.5016 -4.87763 -34.9211 -54.8307 56.1787 0.839066 -22.57 0.167436 -69.2737 -6.45336 5.29515 -0.926168 20.8075 2.89153 -0.0 0.0 -0.0 11.6012 -13.5305 -21.3345 -36.1905 59.6454 -40.21 0.567183 15.6937 -0.0781676 44.0473 0.576346 5.46064 2.25588 10.7398 -10.7147 0.0 0.0 0.0 34.8482 -10.5839 -1.33462 -17.4478 0.317289 2.6484 9.83585 12.7057 -1.4038 -1.81708 0.0 0.0 -0.0 0.0 -0.0 -0.300657 -14.433 -2.8955 -4.03705 -0.145038 -0.60246 38.3703 17.0562 5.08882 -13.3692 0.0 0.0 0.0 0.0 0.0 
966.102 697.519 -1372.19 -68.0738 82.1341 64.5352 4.01425 0.304251 1.19504 4.01502 0.227596 1.21198 4.01939 0.0542971 1.23196 4.01735 0.248167 1.20793 -19.2685 9.98228 -0.580054 -19.8062 19.5254 3.62352 -0.0 0.0 -0.0 -5.31158 20.3253 -5.43476 -33.4105 -54.9762 60.7906 0.808236 -21.8199 0.15579 -69.1477 -6.4373 5.29379 -0.720458 17.5117 2.72859 -0.0 0.0 -0.0 11.6175 -12.4646 -21.545 -35.1794 59.9502 -40.5931 0.574124 15.8761 -0.0800556 44.6098 0.610497 5.524 1.93343 11.6556 -8.10595 0.0 0.0 0.0 34.7211 -9.80435 -1.82751 -9.38691 0.271204 1.41346 4.74603 13.4684 -0.688844 -4.7586 0.0 0.0 -0.0 0.0 -0.0 -2.5748 -13.3681 -2.56831 -3.69802 -0.134496 -0.551496 37.0712 18.0914 5.00401 -11.1762 0.0 0.0 0.0 0.0 0.0 
956.201 693.87 -1375.03 -66.8065 82.4486 63.4618 3.99891 0.257724 1.18599 3.99968 0.18174 1.19998 4.00305 0.0102356 1.21362 4.00105 0.201762 1.19678 -19.1018 10.4277 -0.997424 -19.6942 20.5976 3.40592 -0.0 0.0 -0.0 -5.58248 20.1563 -5.88575 -33.4753 -55.1043 61.0973 0.782469 -21.1869 0.146344 -67.369 -6.21081 5.27089 -0.385182 15.2007 3.8273 -0.0 0.0 -0.0 11.6838 -11.6081 -21.8097 -34.5795 60.2448 -40.8859 0.579413 16.0149 -0.0815087 44.086 0.578677 5.46501 1.70954 10.9732 -6.88431 0.0 0.0 0.0 34.8584 -9.20067 -2.3104 -3.36129 0.123728 0.500941 1.28633 15.2062 -0.189 -8.04043 0.0 0.0 -0.0 0.0 -0.0 -3.38297 -13.3149 -2.52609 -5.18841 -0.178582 -0.77597 37.0831 19.645 5.06595 -9.98614 0.0 0.0 0.0 0.0 0.0 
952.389 693.823 -1369.23 -61.8306 81.8793 58.9204 3.7545 0.24032 1.12038 3.75518 0.168544 1.1334 3.75817 0.00168648 1.14586 3.75638 0.182621 1.13122 -19.1204 11.3382 -1.44598 -19.8405 22.5812 3.4077 -0.0 0.0 -0.0 -5.6532 18.6897 -6.39346 -32.0686 -54.9678 63.9683 0.782497 -21.1875 0.146355 -66.1141 -6.05143 5.25049 -0.0441903 11.822 4.59655 -0.0 0.0 -0.0 11.3763 -11.8319 -21.194 -32.067 61.4064 -41.2041 0.648405 17.8072 -0.10158 43.5559 0.547021 5.40501 1.79871 14.7769 -5.80124 0.0 0.0 0.0 34.7404 -8.87606 -2.52861 -0.635528 0.0256467 0.0941566 0.108847 15.7532 -0.0160563 -9.77025 0.0 0.0 -0.0 0.0 -0.0 -3.24718 -13.6717 -2.63571 -5.71079 -0.192649 -0.854903 37.1224 19.716 5.07267 -8.93413 0.0 0.0 0.0 0.0 0.0 
948.08 695.512 -1366.87 -64.0692 81.9038 61.0905 3.76438 0.26506 1.23741 3.76521 0.18579 1.25176 3.76885 0.00174934 1.26547 3.76667 0.201569 1.24932 -17.7803 11.2979 -1.31483 -18.4079 22.4317 3.22314 -0.0 0.0 -0.0 -5.64365 17.5708 -6.68205 -30.6193 -55.9651 67.0912 0.767408 -20.8143 0.140947 -66.0738 -6.04632 5.24977 0.155895 9.30298 4.86503 -0.0 0.0 -0.0 11.0847 -10.5286 -20.835 -31.0465 61.4829 -41.6719 0.727098 19.8082 -0.126954 43.4116 0.538501 5.38863 1.47304 14.2464 -3.84423 0.0 0.0 0.0 34.9597 -8.5236 -2.3784 3.13011 -0.141496 -0.459382 -1.11469 14.1984 0.164372 -11.8121 0.0 0.0 -0.0 0.0 -0.0 -2.94682 -12.5373 -2.62619 -6.08719 -0.202338 -0.911855 37.9216 22.6897 5.28275 -9.46051 0.0 0.0 0.0 0.0 0.0 
941.272 690.25 -1363.35 -65.8177 81.1489 63.0343 3.75122 0.314777 1.1286 3.7519 0.242328 1.14634 3.75641 0.0727794 1.16941 3.75459 0.25654 1.14324 -18.8638 10.5332 -1.25598 -19.4631 20.9351 3.16797 -0.0 0.0 -0.0 -5.45937 17.5644 -6.39304 -30.9317 -55.971 67.511 0.760224 -20.636 0.138404 -65.7641 -6.00705 5.24417 -0.0314584 9.14937 3.59412 -0.0 0.0 -0.0 10.9606 -12.4167 -20.3311 -28.4674 61.8947 -42.2971 0.757178 20.5602 -0.137333 43.2024 0.526226 5.36485 1.2638 15.5007 -1.88451 0.0 0.0 0.0 35.4193 -7.9621 -2.6452 4.834 -0.22903 -0.706072 -1.63087 12.9844 0.240301 -13.4935 0.0 0.0 -0.0 0.0 -0.0 -2.37658 -12.47 -1.53231 -6.70562 -0.217444 -1.00556 37.8791 22.8169 5.2848 -9.60896 0.0 0.0 0.0 0.0 0.0 
934.491 691.502 -1357.19 -61.6027 80.6079 58.4182 3.60284 0.283174 1.16788 3.60358 0.20829 1.18353 3.60755 0.0305588 1.20132 3.6056 0.219889 1.18143 -18.2433 11.5529 -2.44586 -18.9605 23.5277 2.39111 -0.0 0.0 -0.0 -5.36186 17.2167 -6.33038 -29.632 -55.8081 69.6615 0.749706 -20.3741 0.13472 -65.0879 -5.92144 5.2312 -0.212826 9.22151 2.45522 -0.0 0.0 -0.0 10.9468 -13.0478 -20.2107 -26.7777 62.4736 -42.7797 0.806881 21.7867 -0.155286 41.8937 0.451409 5.21508 1.06582 13.4951 -1.434 0.0 0.0 0.0 36.1761 -7.49078 -2.19971 4.78621 -0.226475 -0.699189 -0.40429 13.2436 0.0594305 -13.729 0.0 0.0 -0.0 0.0 -0.0 -1.8109 -14.0929 -1.16255 -7.83968 -0.242513 -1.17778 38.1545 21.1628 5.234 -9.88312 0.0 0.0 0.0 0.0 0.0 
925.21 688.422 -1357.64 -66.1581 81.1648 63.4202 3.58058 0.330212 1.15905 3.58129 0.255795 1.17771 3.58623 0.0779645 1.20264 3.58431 0.266907 1.17524 -19.7662 10.6902 -0.696307 -20.417 20.9502 3.93279 -0.0 0.0 -0.0 -5.08075 16.5229 -6.06077 -30.6336 -55.5936 68.9779 0.749742 -20.375 0.134733 -64.5815 -5.8574 5.22081 -0.1733 7.29282 1.91066 -0.0 0.0 -0.0 10.9519 -13.5405 -20.1441 -25.6644 62.3284 -43.1403 0.831653 22.3904 -0.164602 42.0398 0.459588 5.23188 0.960939 12.6606 -1.09057 0.0 0.0 0.0 36.9023 -7.81224 -2.79228 3.03954 -0.137049 -0.446199 -0.422728 11.7154 0.0620262 -17.209 0.0 0.0 -0.0 0.0 -0.0 -1.89079 -12.7401 -0.836833 -10.5146 -0.288101 -1.58567 38.0098 21.8364 5.25085 -9.00558 0.0 0.0 0.0 0.0 0.0 
917.759 685.705 -1356.15 -71.8354 81.4092 69.6773 3.67482 0.257833 1.16219 3.67555 0.183362 1.17624 3.67897 0.00846513 1.19041 3.67704 0.196349 1.17414 -20.0448 9.71078 0.368279 -20.5573 18.5295 4.51358 -0.0 0.0 -0.0 -4.81351 14.7867 -6.05564 -30.0541 -55.2159 69.8701 0.675216 -18.4942 0.109932 -63.6742 -5.74291 5.20079 -0.271665 7.63144 1.41309 -0.0 0.0 -0.0 10.941 -13.9613 -20.0583 -25.0543 61.9768 -43.1597 0.870257 23.3206 -0.179596 42.5007 0.485684 5.28476 1.17657 12.1677 -2.75766 0.0 0.0 0.0 36.8687 -7.92258 -2.8579 4.14653 -0.192828 -0.606848 -0.172045 10.5262 0.0252046 -17.8037 0.0 0.0 -0.0 0.0 -0.0 -1.76792 -12.8679 -1.26985 -12.8213 -0.312089 -1.93877 38.2143 20.8167 5.2243 -7.81898 0.0 0.0 0.0 0.0 0.0 
